# xmcd
#
# Track frame offsets: 
#        150
#        12502
#        24695
#        39471
#        52737
#        66121
#        78272
#        90342
#        101470
#        113636
#        126446
#        137994
#        149808
#        163573
#        175429
#        189502
#        202707
#        214735
#        228023
#        240626
#        253235
#        266333
#        279511
#        290343
#
# Disc length: 4019 seconds
#
# Revision: 0
# Processed by: cddbd v1.5.2PL0 Copyright (c) Steve Scherf et al.
# Submitted via: ExactAudioCopy v1.0b3
#
DISCID=520fb118
DTITLE=Various Artist - Swinging Gospel Sounds
DYEAR=1995
DGENRE=Gospel
TTITLE0=Uncle Joe Dobson - Kin You Take It?
TTITLE1=Uncle Joe Dobson - You Wooden Pistol You
TTITLE2=Uncle Joe Dobson - My God Is A Rock In The Weary Land
TTITLE3=Uncle Joe Dobson - There Was A Man
TTITLE4=Golden Eagle Gospel Singers - When Death Comes Creeping In You
TTITLE4=r Room
TTITLE5=Golden Eagle Gospel Singers - Do Lord Remember Me
TTITLE6=Golden Eagle Gospel Singers - Gimme That Old Time Religion
TTITLE7=Golden Eagle Gospel Singers - Tone The Bell
TTITLE8=Golden Eagle Gospel Singers - I'm Traveling On
TTITLE9=Golden Eagle Gospel Singers - Staying On Jesus
TTITLE10=Golden Eagle Gospel Singers - The Old Ship Of Zion
TTITLE11=Golden Eagle Gospel Singers - Shake Mother's Hand For Me
TTITLE12=Golden Eagle Gospel Singers - Something On My Mind
TTITLE13=Golden Eagle Gospel Singers - A Warrior On The Battlefield
TTITLE14=Golden Eagle Gospel Singers - The Prodigal Son
TTITLE15=Golden Eagle Gospel Singers - How About You?
TTITLE16=Golden Eagle Gospel Singers - He's My Rock
TTITLE17=Golden Eagle Gospel Singers - March, Childern, March
TTITLE18=Golden Eagle Gospel Singers - Lead Me To The Rock
TTITLE19=Golden Eagle Gospel Singers - All The Way
TTITLE20=The Robinson Children - I Ain't Gwine Study About War No More
TTITLE21=The Robinson Children - I Hope I May Join The Band 
TTITLE22=The Robinson Children - There's One More River To Cross
TTITLE23=The Robinson Children - I'm Gonna Run To My Lord
EXTD=
EXTT0=
EXTT1=
EXTT2=
EXTT3=
EXTT4=
EXTT5=
EXTT6=
EXTT7=
EXTT8=
EXTT9=
EXTT10=
EXTT11=
EXTT12=
EXTT13=
EXTT14=
EXTT15=
EXTT16=
EXTT17=
EXTT18=
EXTT19=
EXTT20=
EXTT21=
EXTT22=
EXTT23=
PLAYORDER=
